<svg width="5000" height="1294" viewBox="0 0 5000 1294" fill="none" xmlns="http://www.w3.org/2000/svg">
<path d="M1850.4 880V364.8H1937.6V812.8H2201.6V880H1850.4ZM2389.11 888C2365.11 888 2342.71 883.733 2321.91 875.2C2301.65 866.667 2285.38 853.867 2273.11 836.8C2260.85 819.2 2254.71 797.6 2254.71 772C2254.71 735.733 2266.98 706.667 2291.51 684.8C2316.58 662.4 2354.98 651.2 2406.71 651.2H2528.31V634.4C2528.31 616.267 2525.38 601.867 2519.51 591.2C2514.18 580.533 2504.05 572.8 2489.11 568C2474.71 563.2 2453.38 560.8 2425.11 560.8C2380.31 560.8 2338.45 567.467 2299.51 580.8V516C2316.58 509.067 2337.38 503.467 2361.91 499.2C2386.45 494.933 2412.85 492.8 2441.11 492.8C2496.58 492.8 2538.71 504 2567.51 526.4C2596.85 548.8 2611.51 585.333 2611.51 636V880H2537.11L2531.51 841.6C2516.05 856.533 2496.85 868 2473.91 876C2451.51 884 2423.25 888 2389.11 888ZM2412.31 825.6C2438.45 825.6 2461.11 821.333 2480.31 812.8C2500.05 803.733 2516.05 791.733 2528.31 776.8V710.4H2408.31C2382.71 710.4 2364.05 715.467 2352.31 725.6C2341.11 735.2 2335.51 750.133 2335.51 770.4C2335.51 790.133 2342.18 804.267 2355.51 812.8C2368.85 821.333 2387.78 825.6 2412.31 825.6ZM2894.61 888C2827.95 888 2777.55 871.2 2743.41 837.6C2709.28 803.467 2692.21 754.4 2692.21 690.4C2692.21 623.733 2710.88 574.133 2748.21 541.6C2786.08 509.067 2836.48 492.8 2899.41 492.8C2925.55 492.8 2947.41 494.667 2965.01 498.4C2983.15 502.133 3000.48 508 3017.01 516V580.8C2989.28 566.933 2955.68 560 2916.21 560C2872.48 560 2838.88 569.867 2815.41 589.6C2791.95 608.8 2780.21 642.4 2780.21 690.4C2780.21 735.733 2790.61 769.067 2811.41 790.4C2832.21 811.2 2866.61 821.6 2914.61 821.6C2952.48 821.6 2986.88 814.4 3017.81 800V866.4C3000.21 873.333 2981.28 878.667 2961.01 882.4C2941.28 886.133 2919.15 888 2894.61 888ZM3205.52 888C3181.52 888 3159.12 883.733 3138.32 875.2C3118.05 866.667 3101.79 853.867 3089.52 836.8C3077.25 819.2 3071.12 797.6 3071.12 772C3071.12 735.733 3083.39 706.667 3107.92 684.8C3132.99 662.4 3171.39 651.2 3223.12 651.2H3344.72V634.4C3344.72 616.267 3341.79 601.867 3335.92 591.2C3330.59 580.533 3320.45 572.8 3305.52 568C3291.12 563.2 3269.79 560.8 3241.52 560.8C3196.72 560.8 3154.85 567.467 3115.92 580.8V516C3132.99 509.067 3153.79 503.467 3178.32 499.2C3202.85 494.933 3229.25 492.8 3257.52 492.8C3312.99 492.8 3355.12 504 3383.92 526.4C3413.25 548.8 3427.92 585.333 3427.92 636V880H3353.52L3347.92 841.6C3332.45 856.533 3313.25 868 3290.32 876C3267.92 884 3239.65 888 3205.52 888ZM3228.72 825.6C3254.85 825.6 3277.52 821.333 3296.72 812.8C3316.45 803.733 3332.45 791.733 3344.72 776.8V710.4H3224.72C3199.12 710.4 3180.45 715.467 3168.72 725.6C3157.52 735.2 3151.92 750.133 3151.92 770.4C3151.92 790.133 3158.59 804.267 3171.92 812.8C3185.25 821.333 3204.19 825.6 3228.72 825.6ZM3524.62 880V340.8H3611.82V652.8L3771.02 500.8H3871.02L3716.62 653.6L3879.82 880H3787.82L3662.22 700L3611.82 748V880H3524.62ZM3954.31 1052.8V500.8H4029.51L4034.31 538.4C4051.37 522.933 4070.04 511.467 4090.31 504C4110.57 496.533 4134.57 492.8 4162.31 492.8C4216.71 492.8 4259.11 507.733 4289.51 537.6C4319.91 566.933 4335.11 615.733 4335.11 684C4335.11 752.267 4319.37 803.467 4287.91 837.6C4256.44 871.2 4213.51 888 4159.11 888C4113.24 888 4074.04 877.333 4041.51 856V1052.8H3954.31ZM4136.71 822.4C4210.31 822.4 4247.11 776 4247.11 683.2C4247.11 638.4 4238.84 606.667 4222.31 588C4205.77 568.8 4178.04 559.2 4139.11 559.2C4100.17 559.2 4067.64 572.533 4041.51 599.2V788.8C4053.77 798.933 4067.37 807.2 4082.31 813.6C4097.77 819.467 4115.91 822.4 4136.71 822.4Z" fill="black"/>
<path d="M1381.83 959.875H693.167C670.336 959.875 648.44 950.806 632.297 934.662C616.153 918.518 607.083 896.622 607.083 873.792V271.208C607.083 248.378 616.153 226.482 632.297 210.338C648.44 194.194 670.336 185.125 693.167 185.125H1381.83C1404.66 185.125 1426.56 194.194 1442.7 210.338C1458.85 226.482 1467.92 248.378 1467.92 271.208V873.792C1467.92 896.622 1458.85 918.518 1442.7 934.662C1426.56 950.806 1404.66 959.875 1381.83 959.875ZM693.167 357.292V873.792H1381.83V357.292H693.167ZM1154.01 775.097L1093.2 714.279L1191.85 615.542L1093.15 516.847L1154.01 455.986L1313.57 615.542L1154.06 775.054L1154.01 775.097V775.097ZM920.986 775.097L761.431 615.542L920.986 455.986L981.847 516.847L883.153 615.542L981.804 714.236L920.986 775.054V775.097V775.097Z" fill="black"/>
</svg>
